<svg version="1.1" id="Слой_1" xmlns="http://www.w3.org/2000/svg" x="0" y="0" viewBox="0 0 191.5 37.6" xml:space="preserve"><path fill="#111" d="M92.2 29.4c-.9-1.3-1.3-2.8-1.2-4.4v-6.3c-.1-1.6.3-3.1 1.2-4.4.8-1 2.2-1.5 4.1-1.5s3.2.4 4 1.3c.8 1.1 1.2 2.4 1.1 3.7v1.5h-3.9v-1.7c0-.5 0-1.1-.2-1.6-.1-.4-.5-.6-1.1-.6-.5-.1-.9.2-1.1.6-.1.7-.1 1.2-.1 1.8V26c0 .5.1 1.1.3 1.6.2.4.6.6 1.1.6.4 0 .8-.2 1-.6.2-.5.3-1.1.2-1.6v-1.8h3.9v1.5c.1 1.4-.3 2.7-1.2 3.9-.8.9-2.1 1.4-4 1.4s-3.3-.6-4.1-1.6zm14-16.3h4.5l3.3 17.6h-3.6l-.6-3.7h-2.6l-.6 3.7h-3.7l3.3-17.6zm3.2 11.6l-1-6.9-1 6.9h2zm7.3-8.7H114v-2.9h9.3V16h-2.7v14.7h-4l.1-14.7zm13.8-2.9h6.9v1.8H133v5.8h3.6v1.7H133v6.4h4.5v1.8h-7V13.1zm8.9 0h1.7l5.1 11.7V13.1h2.1v17.6h-1.6l-5.1-12v12h-2.1V13.1zm11.4 0h6.9v1.8h-4.4v5.8h3.6v1.7h-3.6v6.4h4.5v1.8h-7V13.1zm8.9 0h3.6c1.4-.1 2.8.3 4 1.1.9.9 1.4 2.3 1.3 3.6 0 2.3-.7 3.6-2.2 4.1l2.5 8.8h-2.4l-2.3-8.3h-1.9v8.3h-2.5l-.1-17.6zm3.5 7.6c.8.1 1.6-.1 2.3-.6.5-.6.8-1.5.7-2.3 0-.6-.1-1.2-.2-1.7-.2-.4-.5-.7-.9-.9-.6-.2-1.1-.3-1.7-.3h-1.1v5.8h.9zm8.6 8.7c-.8-1.4-1.2-2.9-1.1-4.5V19c0-1.1.1-2.3.4-3.4.2-.8.8-1.5 1.5-2 .9-.5 1.9-.8 2.9-.7 1.3-.1 2.6.3 3.5 1.2.8 1.1 1.2 2.5 1.1 3.9v.6h-2.3v-.5c0-.7 0-1.3-.2-2-.1-.4-.3-.8-.6-1-.4-.3-.9-.4-1.5-.4s-1.1.1-1.6.5c-.3.3-.6.8-.6 1.3-.1.7-.2 1.4-.1 2.1v6.5c-.1 1 .1 2 .5 2.9.4.6 1.2 1 1.9.9.8.1 1.5-.3 1.9-1 .4-1 .6-2 .5-3.1v-1.2h-2.3V22h4.5v8.7h-1.6l-.2-2c-.4 1.4-1.7 2.3-3.2 2.2-1.3.1-2.6-.4-3.4-1.5zm13.4-4.9l-3.9-11.4h2.3l2.7 8.5 2.7-8.5h2.3l-3.8 11.4v6.2h-2.4v-6.2z"/><path fill="#FDC30B" d="M6.1 20.7v-2.3c6.7-.9 13.4-1.4 20.2-1.3 0 .6 0 1.2-.1 1.8 1.9-.9 3.9-1.5 6-1.8-3.3-8.6-13-12.9-21.6-9.5-5.5 2.1-9.5 7-10.4 12.8l5.9.3zm21.1 3.5c-1.2 1.3-1.4 1.2-1.4 3.5v9.2c4.7-3.1 7.4-8.3 7.4-13.9 0-1-.1-2.1-.3-3.1-2 1.2-3.9 2.7-5.7 4.3zM6.4 25.7s-3.8-1.4-5.2-1.8L0 23.6c.2 5.9 3.5 11.2 8.7 14L6.4 25.7z"/><path fill="#EC6352" d="M26.3 17.1c0-5.5-.4-11-1.4-16.5 0 0-.1-1.3-.9-.2-.6 1.2-1 2.6-1.2 3.9-4.3-.2-8.5-.1-12.8.4C9.2 2 7.8.8 7.2 1s-.7 3.3-.7 3.3l-.4 14.2c6.7-1 13.4-1.4 20.2-1.4z"/><path fill="#010101" d="M12.4 14c0-.1 1 .7 1.4.9s.6.4.6.6-.3.3-.6.3-.9-.1-1-.3H14c-.6-.4-1.1-.9-1.6-1.5zm7.5.1s-1 1.3-1.1 1.3-.2.3.2.3l1.2-.3c.1-.1.1-.2-.1-.2s-.7 0-1 .1l.8-1.2s.1-.1 0 0zm-3.1 6.1c.5-.2.8-.6 1.1-1 .3-.7 0-.9-.4-1-.6-.1-1.2 0-1.7.3-.4.4-.3.7-.1 1 .3.3.6.5 1.1.7z"/><path fill="#EC6352" d="M16.4 21.5c-.1.2-.3.4-.5.6-.3.2-.6.4-1 .4-.5 0-1-.1-1.4-.5-.2-.1-.4-.3-.5-.4-.1-.1-.2-.2-.4-.3 0 0 .8 4.1 2.6 4.7s2.1-.8 2.2-1.1c.1-1.1-.2-2.3-.8-3.2-.1-.3-.1-.1-.2-.2z"/><path fill="#010101" d="M14.7 22.6c-.9-.1-1.8-.6-2.3-1.4V21h.2c.5.7 1.3 1.2 2.1 1.3.7-.1 1.3-.4 1.6-1l.1-.2.1.2s.4.8 1 .8 1-.4 1.6-1.3c.1-.1.1-.1.2 0 .1 0 .1.1 0 .2-.6 1-1.3 1.5-1.9 1.4-.5-.1-.9-.4-1.1-.8-.3.6-.9 1-1.6 1z"/><path fill="#EC6352" d="M26.2 18.9c-1.8 1.6-3.5 3.4-5.1 5.2-1.6 1.8-3.3 3.5-5.3 4.9-.2-.5-1.6-1.5-1.6-1.5s-3.1-2.1-5.2-3.8c-1.1-.9-2.2-1.9-3.1-3l-2-.1c2.9 4.2 7.1 7.3 12 8.8.9-.1 3.3-1.9 5.1-3.3 2.1-1.8 4.1-3.8 5.9-5.9.5-.6.9-1.3 1.1-2-1 .4-1.8.7-1.8.7z"/></svg>