<svg xmlns="http://www.w3.org/2000/svg" viewBox="0 0 191.46 37.61"><path d="M92.18 26.35A6.71 6.71 0 0191 22v-6.34a6.85 6.85 0 011.21-4.4c.81-1 2.19-1.48 4.14-1.48s3.19.44 4 1.32a5.5 5.5 0 011.1 3.72v1.52h-3.86v-1.72a4.23 4.23 0 00-.22-1.56c-.14-.37-.5-.55-1.06-.55a1.09 1.09 0 00-1.1.58 4 4 0 00-.21 1.59v8.28a3.73 3.73 0 00.27 1.59 1.11 1.11 0 001.09.56 1 1 0 001-.56 4.17 4.17 0 00.23-1.59v-1.85h3.86v1.52a5.77 5.77 0 01-1.17 3.85c-.78.92-2.1 1.38-4 1.38s-3.28-.5-4.1-1.51zm13.97-16.33h4.5L114 27.6h-3.64l-.59-3.71h-2.63l-.62 3.71h-3.72zm3.22 11.55l-1-6.86-1 6.86zm7.34-8.67H114v-2.88h9.32v2.88h-2.66v14.7h-4zm13.78-2.88h6.92v1.8H133v5.82h3.59v1.74H133v6.44h4.48v1.76h-7zm8.95 0h1.7l5.07 11.68V10.02h2.08V27.6h-1.59l-5.14-12v12h-2.12zm11.33 0h6.92v1.8h-4.43v5.82h3.59v1.74h-3.59v6.44h4.48v1.76h-7zm8.95 0h3.6a6 6 0 014 1.09 4.5 4.5 0 011.27 3.57q0 3.39-2.21 4.11l2.54 8.81h-2.41l-2.33-8.25h-1.94v8.25h-2.5zm3.44 7.57a3.4 3.4 0 002.31-.63 3 3 0 00.69-2.28 4.83 4.83 0 00-.24-1.7 1.63 1.63 0 00-.86-.91 4.06 4.06 0 00-1.74-.3h-1.1v5.82zm8.61 8.72a7.69 7.69 0 01-1.08-4.49v-5.88a10.87 10.87 0 01.43-3.35 3.7 3.7 0 011.48-2 5.05 5.05 0 012.87-.71A4.53 4.53 0 01179 11.1a5.77 5.77 0 011.1 3.89v.65h-2.34v-.54a8.91 8.91 0 00-.16-1.95 1.64 1.64 0 00-.65-1 2.56 2.56 0 00-1.46-.35 2.24 2.24 0 00-1.55.47 2.19 2.19 0 00-.65 1.25 12.7 12.7 0 00-.14 2.08v6.52a6.43 6.43 0 00.49 2.9 2 2 0 001.91.88 2 2 0 001.91-1 6.7 6.7 0 00.54-3.08v-1.19h-2.27V18.9h4.52v8.7h-1.57l-.24-2a3.15 3.15 0 01-3.17 2.22 4 4 0 01-3.5-1.51zm13.47-4.92l-3.86-11.37h2.32l2.73 8.49 2.69-8.49h2.34l-3.84 11.37v6.21h-2.38z" fill="#111"/><path d="M6.07 20.73v-2.27a143.26 143.26 0 0120.17-1.33c0 .6 0 1.21-.06 1.82a25.23 25.23 0 016-1.81A16.67 16.67 0 00.19 20.39zm21.17 3.5c-1.16 1.28-1.39 1.2-1.39 3.46v9.17a16.64 16.64 0 007.44-13.88A17.38 17.38 0 0033 19.9a33.11 33.11 0 00-5.76 4.33zM6.36 25.72s-3.79-1.44-5.19-1.83c-.42-.07-.8-.22-1.17-.28a16.68 16.68 0 008.68 14z" fill="#fdc30b"/><path d="M26.29 17.12A89.63 89.63 0 0024.89.66s-.14-1.3-.89-.24a14.09 14.09 0 00-1.2 3.93 70.34 70.34 0 00-12.77.34C9.24 1.95 7.85.75 7.18 1.04s-.72 3.31-.72 3.31l-.33 14.11a144.74 144.74 0 0120.16-1.34z" fill="#ec6352"/><path d="M12.41 14c0-.09 1 .68 1.41.92s.61.42.61.59-.27.34-.63.34-.91-.12-1-.27h1.23A8.34 8.34 0 0112.41 14zm7.48.11s-1.05 1.28-1.09 1.34-.17.34.18.29a7.53 7.53 0 001.22-.28c.11-.06.07-.2-.11-.18s-.69 0-1 .11l.84-1.26s.07-.12-.04-.02zm-3.14 6.09a2.31 2.31 0 001.09-1c.28-.66 0-.92-.44-1a2.43 2.43 0 00-1.74.34c-.39.37-.34.73-.05 1a5 5 0 001.14.66z" fill="#010101"/><path d="M16.35 21.46a1.94 1.94 0 01-.46.59 1.8 1.8 0 01-1 .39 2.15 2.15 0 01-1.45-.45 2.07 2.07 0 01-.53-.44 1 1 0 00-.36-.25s.75 4.1 2.57 4.74 2.14-.75 2.2-1.13a5.56 5.56 0 00-.82-3.22c-.04-.31-.05-.1-.15-.23z" fill="#ec6352"/><path d="M14.71 22.59a3.44 3.44 0 01-2.33-1.42.143.143 0 11.23-.17 3.26 3.26 0 002.11 1.3 2.09 2.09 0 001.63-1l.14-.19.1.22s.37.75 1 .79 1.05-.41 1.61-1.28a.15.15 0 01.25.16c-.64 1-1.27 1.45-1.88 1.41a1.58 1.58 0 01-1.12-.77 2.26 2.26 0 01-1.74.95z" fill="#010101"/><path d="M26.24 18.93a57 57 0 00-5.07 5.19 31.82 31.82 0 01-5.29 4.87c-.22-.52-1.62-1.51-1.62-1.51s-3.13-2.13-5.18-3.82a32.85 32.85 0 01-3.13-3l-2-.11a22.57 22.57 0 0012 8.8c.86-.14 3.27-1.86 5.07-3.26a57.12 57.12 0 005.94-5.89 6 6 0 001.14-2c-1.1.4-1.86.73-1.86.73z" fill="#ec6352"/></svg>